{
	"patcher" : 	{
		"fileversion" : 1,
		"rect" : [ 22.0, 44.0, 914.0, 690.0 ],
		"bglocked" : 0,
		"defrect" : [ 22.0, 44.0, 914.0, 690.0 ],
		"openrect" : [ 0.0, 0.0, 0.0, 0.0 ],
		"openinpresentation" : 0,
		"default_fontsize" : 12.0,
		"default_fontface" : 0,
		"default_fontname" : "Arial",
		"gridonopen" : 0,
		"gridsize" : [ 15.0, 15.0 ],
		"gridsnaponopen" : 0,
		"toolbarvisible" : 1,
		"boxanimatetime" : 200,
		"imprint" : 0,
		"enablehscroll" : 1,
		"enablevscroll" : 1,
		"devicewidth" : 0.0,
		"boxes" : [ 			{
				"box" : 				{
					"maxclass" : "multislider",
					"outlettype" : [ "", "" ],
					"patching_rect" : [ 483.0, 516.0, 196.0, 43.0 ],
					"setminmax" : [ 0.0, 1.0 ],
					"id" : "obj-26",
					"settype" : 0,
					"size" : 10,
					"numinlets" : 1,
					"presentation_rect" : [ 483.0, 516.0, 0.0, 0.0 ],
					"numoutlets" : 2
				}

			}
, 			{
				"box" : 				{
					"maxclass" : "message",
					"text" : "$2 dial $1",
					"outlettype" : [ "" ],
					"patching_rect" : [ 431.0, 602.0, 63.0, 18.0 ],
					"id" : "obj-23",
					"fontname" : "Arial",
					"numinlets" : 2,
					"fontsize" : 12.0,
					"presentation_rect" : [ 431.0, 602.0, 0.0, 0.0 ],
					"numoutlets" : 1
				}

			}
, 			{
				"box" : 				{
					"maxclass" : "newobj",
					"text" : "s to_mixer",
					"patching_rect" : [ 354.0, 624.0, 66.0, 20.0 ],
					"id" : "obj-22",
					"fontname" : "Arial",
					"numinlets" : 1,
					"fontsize" : 12.0,
					"numoutlets" : 0
				}

			}
, 			{
				"box" : 				{
					"maxclass" : "message",
					"text" : "$2 fader $1",
					"outlettype" : [ "" ],
					"patching_rect" : [ 354.0, 600.0, 71.0, 18.0 ],
					"id" : "obj-21",
					"fontname" : "Arial",
					"numinlets" : 2,
					"fontsize" : 12.0,
					"numoutlets" : 1
				}

			}
, 			{
				"box" : 				{
					"maxclass" : "newobj",
					"text" : "pack",
					"outlettype" : [ "" ],
					"patching_rect" : [ 354.0, 576.0, 36.0, 20.0 ],
					"id" : "obj-19",
					"fontname" : "Arial",
					"numinlets" : 2,
					"fontsize" : 12.0,
					"numoutlets" : 1
				}

			}
, 			{
				"box" : 				{
					"maxclass" : "message",
					"outlettype" : [ "" ],
					"patching_rect" : [ 180.0, 581.0, 50.0, 18.0 ],
					"id" : "obj-9",
					"fontname" : "Arial",
					"numinlets" : 2,
					"fontsize" : 12.0,
					"numoutlets" : 1
				}

			}
, 			{
				"box" : 				{
					"maxclass" : "newobj",
					"text" : "ctlin",
					"outlettype" : [ "int", "int", "int" ],
					"patching_rect" : [ 354.0, 550.0, 46.0, 20.0 ],
					"id" : "obj-6",
					"fontname" : "Arial",
					"numinlets" : 1,
					"fontsize" : 12.0,
					"numoutlets" : 3
				}

			}
, 			{
				"box" : 				{
					"maxclass" : "bpatcher",
					"patching_rect" : [ 607.0, 43.0, 84.0, 314.0 ],
					"id" : "obj-18",
					"args" : [ 7 ],
					"name" : "mischer-spur.maxpat",
					"numinlets" : 0,
					"numoutlets" : 0
				}

			}
, 			{
				"box" : 				{
					"maxclass" : "bpatcher",
					"patching_rect" : [ 519.0, 43.0, 84.0, 314.0 ],
					"id" : "obj-17",
					"args" : [ 6 ],
					"name" : "mischer-spur.maxpat",
					"numinlets" : 0,
					"numoutlets" : 0
				}

			}
, 			{
				"box" : 				{
					"maxclass" : "multislider",
					"outlettype" : [ "", "" ],
					"patching_rect" : [ 466.0, 457.0, 196.0, 43.0 ],
					"setminmax" : [ 0.0, 1.0 ],
					"id" : "obj-15",
					"settype" : 0,
					"size" : 10,
					"numinlets" : 1,
					"numoutlets" : 2
				}

			}
, 			{
				"box" : 				{
					"maxclass" : "newobj",
					"text" : "prepend select",
					"outlettype" : [ "" ],
					"patching_rect" : [ 469.0, 434.0, 89.0, 20.0 ],
					"id" : "obj-16",
					"fontname" : "Arial",
					"numinlets" : 1,
					"fontsize" : 12.0,
					"numoutlets" : 1
				}

			}
, 			{
				"box" : 				{
					"maxclass" : "multislider",
					"outlettype" : [ "", "" ],
					"patching_rect" : [ 262.0, 455.0, 196.0, 43.0 ],
					"setminmax" : [ 0.0, 127.0 ],
					"id" : "obj-13",
					"settype" : 0,
					"size" : 10,
					"numinlets" : 1,
					"numoutlets" : 2
				}

			}
, 			{
				"box" : 				{
					"maxclass" : "newobj",
					"text" : "prepend select",
					"outlettype" : [ "" ],
					"patching_rect" : [ 265.0, 432.0, 89.0, 20.0 ],
					"id" : "obj-14",
					"fontname" : "Arial",
					"numinlets" : 1,
					"fontsize" : 12.0,
					"numoutlets" : 1
				}

			}
, 			{
				"box" : 				{
					"maxclass" : "newobj",
					"text" : "route fader dial on_off",
					"outlettype" : [ "", "", "", "" ],
					"patching_rect" : [ 32.0, 395.0, 127.0, 20.0 ],
					"id" : "obj-12",
					"fontname" : "Arial",
					"numinlets" : 1,
					"fontsize" : 12.0,
					"numoutlets" : 4
				}

			}
, 			{
				"box" : 				{
					"maxclass" : "multislider",
					"outlettype" : [ "", "" ],
					"patching_rect" : [ 32.0, 458.0, 196.0, 43.0 ],
					"setminmax" : [ 0.0, 127.0 ],
					"id" : "obj-11",
					"settype" : 0,
					"size" : 10,
					"numinlets" : 1,
					"numoutlets" : 2
				}

			}
, 			{
				"box" : 				{
					"maxclass" : "newobj",
					"text" : "prepend select",
					"outlettype" : [ "" ],
					"patching_rect" : [ 32.0, 435.0, 89.0, 20.0 ],
					"id" : "obj-10",
					"fontname" : "Arial",
					"numinlets" : 1,
					"fontsize" : 12.0,
					"numoutlets" : 1
				}

			}
, 			{
				"box" : 				{
					"maxclass" : "newobj",
					"text" : "r from_mixer",
					"outlettype" : [ "" ],
					"patching_rect" : [ 32.0, 373.0, 78.0, 20.0 ],
					"id" : "obj-7",
					"fontname" : "Arial",
					"numinlets" : 0,
					"fontsize" : 12.0,
					"numoutlets" : 1
				}

			}
, 			{
				"box" : 				{
					"maxclass" : "bpatcher",
					"patching_rect" : [ 431.0, 43.0, 84.0, 314.0 ],
					"id" : "obj-5",
					"args" : [ 5 ],
					"name" : "mischer-spur.maxpat",
					"numinlets" : 0,
					"numoutlets" : 0
				}

			}
, 			{
				"box" : 				{
					"maxclass" : "bpatcher",
					"patching_rect" : [ 336.0, 43.0, 84.0, 314.0 ],
					"id" : "obj-4",
					"args" : [ 4 ],
					"name" : "mischer-spur.maxpat",
					"numinlets" : 0,
					"numoutlets" : 0
				}

			}
, 			{
				"box" : 				{
					"maxclass" : "bpatcher",
					"patching_rect" : [ 240.0, 43.0, 84.0, 314.0 ],
					"id" : "obj-3",
					"args" : [ 3 ],
					"name" : "mischer-spur.maxpat",
					"numinlets" : 0,
					"numoutlets" : 0
				}

			}
, 			{
				"box" : 				{
					"maxclass" : "bpatcher",
					"patching_rect" : [ 146.0, 43.0, 84.0, 314.0 ],
					"id" : "obj-2",
					"args" : [ 2 ],
					"name" : "mischer-spur.maxpat",
					"numinlets" : 0,
					"numoutlets" : 0
				}

			}
, 			{
				"box" : 				{
					"maxclass" : "bpatcher",
					"patching_rect" : [ 50.0, 41.0, 84.0, 314.0 ],
					"id" : "obj-1",
					"args" : [ 1 ],
					"name" : "mischer-spur.maxpat",
					"numinlets" : 0,
					"numoutlets" : 0
				}

			}
 ],
		"lines" : [ 			{
				"patchline" : 				{
					"source" : [ "obj-23", 0 ],
					"destination" : [ "obj-22", 0 ],
					"hidden" : 0,
					"midpoints" : [  ]
				}

			}
, 			{
				"patchline" : 				{
					"source" : [ "obj-21", 0 ],
					"destination" : [ "obj-22", 0 ],
					"hidden" : 0,
					"midpoints" : [  ]
				}

			}
, 			{
				"patchline" : 				{
					"source" : [ "obj-19", 0 ],
					"destination" : [ "obj-21", 0 ],
					"hidden" : 0,
					"midpoints" : [  ]
				}

			}
, 			{
				"patchline" : 				{
					"source" : [ "obj-6", 1 ],
					"destination" : [ "obj-19", 1 ],
					"hidden" : 0,
					"midpoints" : [  ]
				}

			}
, 			{
				"patchline" : 				{
					"source" : [ "obj-6", 0 ],
					"destination" : [ "obj-19", 0 ],
					"hidden" : 0,
					"midpoints" : [  ]
				}

			}
, 			{
				"patchline" : 				{
					"source" : [ "obj-10", 0 ],
					"destination" : [ "obj-11", 0 ],
					"hidden" : 0,
					"midpoints" : [  ]
				}

			}
, 			{
				"patchline" : 				{
					"source" : [ "obj-12", 0 ],
					"destination" : [ "obj-10", 0 ],
					"hidden" : 0,
					"midpoints" : [ 41.5, 424.5, 41.5, 424.5 ]
				}

			}
, 			{
				"patchline" : 				{
					"source" : [ "obj-7", 0 ],
					"destination" : [ "obj-12", 0 ],
					"hidden" : 0,
					"midpoints" : [  ]
				}

			}
, 			{
				"patchline" : 				{
					"source" : [ "obj-14", 0 ],
					"destination" : [ "obj-13", 0 ],
					"hidden" : 0,
					"midpoints" : [  ]
				}

			}
, 			{
				"patchline" : 				{
					"source" : [ "obj-12", 1 ],
					"destination" : [ "obj-14", 0 ],
					"hidden" : 0,
					"midpoints" : [ 77.5, 423.0, 274.5, 423.0 ]
				}

			}
, 			{
				"patchline" : 				{
					"source" : [ "obj-16", 0 ],
					"destination" : [ "obj-15", 0 ],
					"hidden" : 0,
					"midpoints" : [  ]
				}

			}
, 			{
				"patchline" : 				{
					"source" : [ "obj-12", 2 ],
					"destination" : [ "obj-16", 0 ],
					"hidden" : 0,
					"midpoints" : [ 113.5, 420.0, 478.5, 420.0 ]
				}

			}
 ]
	}

}
